<svg xmlns="http://www.w3.org/2000/svg" width="140.812" height="114.688" viewBox="0 0 140.812 114.688">
  <defs>
    <style>
      .cls-1 {
        fill-rule: evenodd;
      }
    </style>
  </defs>
  <path id="Forma_1" data-name="Forma 1" class="cls-1" d="M139.345,1.69A5.014,5.014,0,0,0,135.679.142H52.251A5.014,5.014,0,0,0,48.585,1.69a5.014,5.014,0,0,0-1.548,3.667V21H34a12.569,12.569,0,0,0-4.767,1.059,12.459,12.459,0,0,0-4.114,2.607L8.988,40.8a11.091,11.091,0,0,0-1.833,2.444,14.853,14.853,0,0,0-1.141,2.484,13.517,13.517,0,0,0-.529,3.015q-0.162,1.915-.2,2.812t0,3.1q0.04,2.2.041,2.852v26.07A5.01,5.01,0,0,0,1.656,85.12,5.009,5.009,0,0,0,.108,88.786a6.55,6.55,0,0,0,.325,2.158,3.092,3.092,0,0,0,1.1,1.509q0.773,0.57,1.344.936a4.493,4.493,0,0,0,1.915.489Q6.137,94,6.626,94.042t2.077,0Q10.293,94,10.537,94h5.214a20.1,20.1,0,0,0,6.11,14.746,20.1,20.1,0,0,0,14.747,6.111,20.092,20.092,0,0,0,14.746-6.111A20.091,20.091,0,0,0,57.464,94H88.751a20.853,20.853,0,0,0,35.6,14.746A20.092,20.092,0,0,0,130.463,94q0.245,0,1.833.041t2.078,0q0.489-.041,1.833-0.163a4.493,4.493,0,0,0,1.915-.489q0.57-.366,1.344-0.936a3.092,3.092,0,0,0,1.1-1.509,6.505,6.505,0,0,0,.326-2.158V5.358A5.017,5.017,0,0,0,139.345,1.69ZM43.939,101.333a10.229,10.229,0,0,1-14.665,0,10.43,10.43,0,0,1,7.333-17.762A10.37,10.37,0,0,1,43.939,101.333Zm3.1-49.047H15.75V49.843a2.44,2.44,0,0,1,.733-1.793L32.37,32.163a2.438,2.438,0,0,1,1.793-.733H47.036V52.286Zm69.9,49.047a10.231,10.231,0,1,1,3.1-7.332A10.022,10.022,0,0,1,116.939,101.333Z" transform="translate(-0.094 -0.156)"/>
</svg>
